# xmcd
#
# Track frame offsets:
#	150
#	14478
#	37939
#	60036
#	76726
#	99889
#	133393
#	159169
#	196918
#	222657
#	248891
#	269874
#	309169
#
# Disc length: 4392 seconds
#
# Revision: 0
# Processed by: cddbd v1.5.1PL2 Copyright (c) Steve Scherf et al.
# Submitted via: audiograbber 1.83.01
#
DISCID=a611260d
DTITLE=Joe Turner - My French Connection
DYEAR=1900
DGENRE=Blues
TTITLE0=Some Day
TTITLE1=Something Wrong
TTITLE2=Beale St Boogie
TTITLE3=Made A Move On Me
TTITLE4=Lie To Me
TTITLE5=My Regrets
TTITLE6=This Man Of Mine
TTITLE7=Born With The Blues
TTITLE8=After Me
TTITLE9=I Got You
TTITLE10=Chedigny
TTITLE11=The Itch
TTITLE12=Why Now
EXTD=
EXTT0=
EXTT1=
EXTT2=
EXTT3=
EXTT4=
EXTT5=
EXTT6=
EXTT7=
EXTT8=
EXTT9=
EXTT10=
EXTT11=
EXTT12=
PLAYORDER=
